# xmcd
#
# Track frame offsets: 
#        150
#        12723
#        25579
#        37351
#        48907
#        60184
#        68139
#        79754
#        94921
#        105103
#        117539
#        131703
#        140336
#        150711
#
# Disc length: 2496 seconds
#
# Revision: 2
# Processed by: cddbd v1.5.2PL0 Copyright (c) Steve Scherf et al.
# Submitted via: ExactAudioCopy v0.99pb4
#
DISCID=b709be0e
DTITLE=Frank Sinatra - 10 CD Set [CD 7)
DYEAR=2005
DGENRE=Jazz
TTITLE0=No Love, No Nothin'
TTITLE1=My Heart Tells Me
TTITLE2=Shoo, Shoo Baby
TTITLE3=Oh, What A Beautiful Morning
TTITLE4=Is You Is Or Is You Ain't
TTITLE5=The Day After Forever
TTITLE6=Swinging On Astar
TTITLE7=Lover Come Back To Me
TTITLE8=I Should Care
TTITLE9=What Makes The Sunset
TTITLE10=If I Loved You
TTITLE11=Time After Time
TTITLE12=The Girl That I Marry
TTITLE13=Soliloquy
EXTD=
EXTT0=
EXTT1=
EXTT2=
EXTT3=
EXTT4=
EXTT5=
EXTT6=
EXTT7=
EXTT8=
EXTT9=
EXTT10=
EXTT11=
EXTT12=
EXTT13=
PLAYORDER=
